<svg xmlns="http://www.w3.org/2000/svg" viewBox="0 0 128 128">
  <defs>
    <linearGradient id="bg" x1="0%" y1="0%" x2="100%" y2="100%">
      <stop offset="0%" style="stop-color:#E8734A"/>
      <stop offset="100%" style="stop-color:#D4543A"/>
    </linearGradient>
  </defs>
  <!-- Rounded square background -->
  <rect width="128" height="128" rx="28" fill="url(#bg)"/>
  <!-- Fork and knife crossed -->
  <!-- Fork (left) -->
  <g transform="translate(64,64) rotate(-20) translate(-64,-64)">
    <rect x="56" y="22" width="4" height="50" rx="2" fill="white"/>
    <rect x="50" y="22" width="4" height="30" rx="2" fill="white"/>
    <rect x="62" y="22" width="4" height="30" rx="2" fill="white"/>
    <rect x="55" y="68" width="6" height="38" rx="3" fill="white"/>
  </g>
  <!-- Knife (right) -->
  <g transform="translate(64,64) rotate(20) translate(-64,-64)">
    <path d="M60 22 C60 22, 68 22, 68 22 C70 22, 72 24, 72 28 L72 60 C72 64, 68 66, 64 66 C60 66, 56 64, 56 60 L56 28 C56 24, 58 22, 60 22Z" fill="white"/>
    <rect x="61" y="66" width="6" height="40" rx="3" fill="white"/>
  </g>
  <!-- Small heart accent -->
  <path d="M64 98 C64 98, 56 90, 56 86 C56 83, 59 81, 61 83 C63 85, 64 86, 64 86 C64 86, 65 85, 67 83 C69 81, 72 83, 72 86 C72 90, 64 98, 64 98Z" fill="white" opacity="0.9"/>
</svg>
